<?xml version="1.0" encoding="utf-8"?>
<!-- Generator: Adobe Illustrator 16.0.0, SVG Export Plug-In . SVG Version: 6.00 Build 0)  -->
<!DOCTYPE svg PUBLIC "-//W3C//DTD SVG 1.1 Tiny//EN" "http://www.w3.org/Graphics/SVG/1.1/DTD/svg11-tiny.dtd">
<svg version="1.1" baseProfile="tiny" id="Calque_1"
	 xmlns="http://www.w3.org/2000/svg" xmlns:xlink="http://www.w3.org/1999/xlink" x="0px" y="0px" width="568px" height="115px"
	 viewBox="0 0 568 115" overflow="scroll" xml:space="preserve">
<g>
	<g>
      <text
         x="10"
         y="20.25"
         fill="#1FB6EA"
         style="font-size:100px;font-family:Century Schoolbook L"
         xml:space="preserve">
         <tspan x="125" y="90" style="font-style:normal">Acme</tspan>
      </text>
      <text
         x="10"
         y="20.25"
         fill="#FFFFFF"
         style="font-size:100px; font-family:Century Schoolbook L"
         xml:space="preserve">
         <tspan x="350" y="90" style="font-style:normal">Store</tspan>
      </text>
	</g>
	<circle fill="#1FB6EA" cx="59.422" cy="57.501" r="46.812"/>
	<g>
		<path fill="#FFFFFF" d="M48.979,50.942c1.396,0,2.525-1.13,2.525-2.523v-9.855c0-4.404,3.586-7.987,7.992-7.987
			c4.401,0,7.987,3.583,7.987,7.987v9.855c0,1.393,1.132,2.523,2.525,2.523c1.396,0,2.528-1.13,2.528-2.523v-9.855
			c0-7.191-5.853-13.041-13.041-13.041c-7.191,0-13.041,5.85-13.041,13.041v9.855C46.454,49.812,47.586,50.942,48.979,50.942z"/>
		<path fill="#FFFFFF" d="M88.473,45.266H75.063v3.153c0,2.785-2.267,5.049-5.054,5.049c-2.784,0-5.051-2.264-5.051-5.049v-3.153
			H54.033v3.153c0,2.785-2.265,5.049-5.052,5.049c-2.786,0-5.051-2.264-5.051-5.049v-3.153h-13.56c-0.697,0-1.128,0.551-0.963,1.227
			l8.839,35.998c0.533,2.023,2.662,3.66,4.755,3.66h32.841c2.096,0,4.224-1.637,4.759-3.66l8.837-35.998
			C89.604,45.814,89.173,45.266,88.473,45.266z"/>
	</g>
</g>
</svg>
